<svg width="1440" height="218" viewBox="0 0 1440 218" fill="none" xmlns="http://www.w3.org/2000/svg">
<g filter="url(#filter0_d_1_138)">
<path d="M1440 76.6119L1431.2 77.6069C1422.4 78.6018 1404.8 80.5918 1386.88 86.263C1369.12 91.8348 1350.88 140.987 1333.12 146.758C1315.2 152.529 1297.6 115.117 1280 121.883C1241.18 136.807 1291.8 146.758 1226.88 195.678C1209.12 198.663 1190.88 140.588 1173.12 124.668C1155.2 108.749 1137.6 82.2832 1120 67.3588C1102.4 52.4344 1084.8 49.0515 1066.88 63.9759C1049.12 78.9003 1030.88 112.132 1013.12 121.584C995.2 131.036 977.6 116.709 960 101.784C942.4 86.86 924.8 71.3386 906.88 74.1245C889.12 76.9104 870.88 98.2026 853.12 98.2026C835.2 98.2026 817.6 76.9104 800 78.9003C782.4 80.8902 764.8 106.162 746.88 121.584C729.12 137.006 710.88 142.578 693.12 136.807C675.2 131.036 657.6 113.724 640 106.162C622.4 98.501 604.8 100.491 586.88 100.491C569.12 100.491 550.88 98.501 533.12 87.7555C515.2 76.9104 497.6 57.4092 480 52.5339C462.4 47.7581 444.8 57.7077 426.88 56.4142C409.12 55.0213 390.88 42.4848 373.12 42.0868C355.2 41.7883 326.6 70.9406 309 72.9305C291.4 74.9204 284.8 49.748 266.88 49.748C255 98.2026 230.88 57.7076 213.12 72.9305C195.2 88.2529 177.6 202.69 160 209.655C142.4 216.619 124.8 116.112 106.88 100.491C89.1199 84.8701 70.8799 62.384 53.1199 66.8613C35.1998 71.3386 17.5999 102.779 8.7998 118.599L0 134.32V0H8.7998C17.5999 0 35.1998 0 53.1199 0C70.8799 0 89.1199 0 106.88 0C124.8 0 142.4 0 160 0C177.6 0 195.2 0 213.12 0C230.88 0 249.12 0 266.88 0C284.8 0 302.4 0 320 0C337.6 0 355.2 0 373.12 0C390.88 0 409.12 0 426.88 0C444.8 0 462.4 0 480 0C497.6 0 515.2 0 533.12 0C550.88 0 569.12 0 586.88 0C604.8 0 622.4 0 640 0C657.6 0 675.2 0 693.12 0C710.88 0 729.12 0 746.88 0C764.8 0 782.4 0 800 0C817.6 0 835.2 0 853.12 0C870.88 0 889.12 0 906.88 0C924.8 0 942.4 0 960 0C977.6 0 995.2 0 1013.12 0C1030.88 0 1049.12 0 1066.88 0C1084.8 0 1102.4 0 1120 0C1137.6 0 1155.2 0 1173.12 0C1190.88 0 1209.12 0 1226.88 0C1244.8 0 1262.4 0 1280 0C1297.6 0 1315.2 0 1333.12 0C1350.88 0 1369.12 0 1386.88 0C1404.8 0 1422.4 0 1431.2 0H1440V76.6119Z" fill="white"/>
</g>
<defs>
<filter id="filter0_d_1_138" x="-4" y="0" width="1448" height="218" filterUnits="userSpaceOnUse" color-interpolation-filters="sRGB">
<feFlood flood-opacity="0" result="BackgroundImageFix"/>
<feColorMatrix in="SourceAlpha" type="matrix" values="0 0 0 0 0 0 0 0 0 0 0 0 0 0 0 0 0 0 127 0" result="hardAlpha"/>
<feOffset dy="4"/>
<feGaussianBlur stdDeviation="2"/>
<feComposite in2="hardAlpha" operator="out"/>
<feColorMatrix type="matrix" values="0 0 0 0 0.0745098 0 0 0 0 0.223529 0 0 0 0 0.584314 0 0 0 0.34 0"/>
<feBlend mode="normal" in2="BackgroundImageFix" result="effect1_dropShadow_1_138"/>
<feBlend mode="normal" in="SourceGraphic" in2="effect1_dropShadow_1_138" result="shape"/>
</filter>
</defs>
</svg>
