<?xml version="1.0" encoding="UTF-8" standalone="no"?>
<!-- Created with Inkscape (http://www.inkscape.org/) -->

<svg
   version="1.1"
   id="svg1"
   width="74"
   height="87"
   viewBox="0 0 74 87"
   xml:space="preserve"
   xmlns="http://www.w3.org/2000/svg"
   xmlns:svg="http://www.w3.org/2000/svg"><defs
     id="defs1" /><g
     id="g1"
     style="display:inline;opacity:1"
     transform="translate(-1.9291122,-0.9659903)"><path
       id="path48"
       style="color:#000000;display:inline;opacity:1;fill:#133995;fill-opacity:1;paint-order:stroke fill markers"
       d="M 1.9994245,0.99919343 V 87.999193 H 75.999425 V 55.602709 c -0.666798,0.01454 -1.334205,-0.0082 -2,-0.0293 V 86.999193 H 2.9994245 V 1.9991934 H 73.999425 V 54.6906 c 0.665816,0.02111 1.333299,0.04344 2,0.02734 V 0.99919343 Z M 24.386143,4.8116934 c -0.818841,-0.01265 -2.89018,2.4935619 -4.28125,3.2890625 -1.61664,0.9244946 -4.596115,0.6775446 -4.591797,0.7148438 C 17.184723,23.254974 10.194549,24.773243 9.0560651,13.005053 9.0426652,12.866542 8.890396,12.945501 8.5482526,12.882006 8.1915622,12.815813 8.2284758,12.147106 8.2005964,11.999193 H 5.9994245 c -0.00501,8.072186 -0.00391,71.625872 0,72 H 71.999425 v -28.49414 c -0.787951,-0.03213 -1.48694,-0.06499 -2.322266,-0.07617 -1.21538,-0.01626 -2.429825,0.01179 -3.644531,0.04687 -1.1781,0.05562 -0.615222,0.02568 -1.69336,0.08984 -0.873457,0.05198 -0.926193,-0.830913 -0.05273,-0.882813 1.094366,-0.06503 0.522851,-0.03348 1.720703,-0.08984 1.230807,-0.03544 2.461874,-0.06345 3.693359,-0.04687 0.827618,0.01114 1.521767,0.04299 2.298829,0.07422 V 10.999193 h -2 l -1.13086,3.732422 c 0,0 -1.167396,3.977916 -2.017578,3.216797 -0.85018,-0.761119 -0.493869,-7.583134 -0.851562,-7.9492186 -0.104275,-0.1067216 -2.865538,-0.049353 -3,0 -0.134461,0.04935 -0.0512,7.5301686 -0.277344,8.4374996 -0.04183,0.167813 -0.766745,0.856155 -1.453125,0.580079 -0.833058,-0.335074 -0.772042,-5.544815 -1.125,-5.814454 C 59.892398,13.010143 59.444462,12.87144 59.255284,12.8781 58.589138,12.90154 58.78474,12.163703 58.616612,11.979662 58.474475,11.824071 57.088629,11.479003 56.8588,11.288256 55.432536,10.104479 56.25218,8.4196387 55.337315,7.8937247 54.454716,7.3863597 51.034588,7.397719 50.458409,7.7765372 48.551201,9.0304643 47.202877,10.228731 45.91544,10.219897 43.912523,10.206155 44.660763,6.1746304 41.561925,6.0538809 c -2.724924,-0.1061794 -2.587842,2.3186825 -4.382813,2.375 -1.665159,0.052245 -2.713634,-3.1339378 -4.320312,-3.5390625 -1.112108,0.3274963 -2.085423,2.7685749 -2.876954,3.71875 -1.03501,1.2424541 -2.47351,1.1957334 -3.316406,-0.1875 L 26.556065,8.2296622 C 26.358857,7.5022353 25.007369,4.8212903 24.386143,4.8116934 Z M 37.899815,14.950365 c 1.772771,0.0054 3.50068,0.01998 5.09961,0.04883 4.613085,0.08324 8.718598,3.642297 8.960937,7.964844 0.242339,4.322547 -2.681939,7.376152 -7.056641,9.109375 3.45611,1.657779 9.02771,11.920653 10.095704,14.925781 L 43.599034,46.899584 C 42.03304,43.76296 40.155943,39.325095 36.225987,33.999193 h -3.226562 v 13 h -10 v -32 c 3.859473,0 9.582078,-0.06506 14.90039,-0.04883 z m -0.972656,6.03125 c -1.122433,-0.01461 -2.432241,0.01637 -3.927734,0.01758 v 7 c 6.028003,0.02019 9.038887,0.535436 9.007812,-3.498046 -0.02317,-3.00774 -1.712779,-3.4757 -5.080078,-3.519532 z M 23.999425,48.999193 h 30 v 8 h -10 v 25 h -10 v -25 h -10 z m 39.143214,5.00067 0.640816,2.541165 8.209067,-0.950175 0.03315,-1.06066 z m 10.838621,0.640816 0.01816,1.032343 2,-0.04297 v -0.949219 z" /><path
       id="path51"
       style="display:inline;opacity:1;fill:#f9f9f9;fill-opacity:1;stroke-width:0.0883883;stroke-dasharray:none;paint-order:stroke fill markers"
       d="M 3.0052839,2.0323966 V 44.5031 86.973803 H 38.493565 73.981846 V 55.573412 c -0.113747,-0.0036 -0.228289,-0.0048 -0.341796,-0.0078 -0.413144,-0.01593 -0.825145,-0.03076 -1.238282,-0.04687 -0.131,-0.0051 -0.240762,-0.0067 -0.365234,-0.01172 V 84.057787 H 39.020909 c -26.331368,0 -33.0251509,-0.02321 -33.0585939,-0.111328 -0.023063,-0.06077 -0.031966,-16.277637 -0.019531,-36.039062 l 0.023437,-35.931641 1.1269531,-0.02344 c 0.8693553,-0.01908 1.1265728,6.25e-4 1.1269531,0.08789 2.71e-4,0.06222 0.042295,0.259276 0.091797,0.4375 0.079097,0.284779 0.1297479,0.330185 0.4296875,0.380859 l 0.3417969,0.05859 0.1054687,0.855469 c 0.5107417,4.137383 1.9665836,6.998047 3.5605476,6.998047 0.537483,0 0.815184,-0.14149 1.296875,-0.664063 0.968362,-1.050548 1.546513,-3.271761 1.65625,-6.361328 0.04774,-1.34426 -0.05653,-3.718349 -0.205079,-4.6640623 l -0.05273,-0.3300782 h 0.978516 c 1.7634,0 3.0013,-0.2668944 3.861328,-0.8320312 0.471635,-0.3099182 0.829628,-0.6111304 2.216797,-1.8574219 0.973046,-0.874226 1.569464,-1.2890625 1.849609,-1.2890625 0.42557,0 1.418944,1.4270518 2.048828,2.9433594 0.709295,1.707467 1.807605,2.1841992 3.054688,1.3261719 0.327056,-0.2250234 0.826575,-0.9188377 1.755859,-2.4414063 0.548744,-0.8990821 1.196568,-1.6166819 1.533203,-1.7011719 0.34687,-0.087059 0.948186,0.3264012 1.617188,1.1113282 1.246998,1.4630809 1.836119,2.0628683 2.183593,2.2207031 0.781052,0.354782 1.262711,0.1619678 2.310547,-0.9238281 0.92571,-0.9592461 1.363332,-1.2034246 2.289063,-1.2734375 1.447778,-0.1094952 2.34383,0.5210244 3.042969,2.140625 0.74155,1.7178503 1.086189,2.0581493 1.990234,1.9648433 0.662159,-0.06834 1.384687,-0.4436361 3.082031,-1.5957027 1.55541,-1.0557291 1.57634,-1.0616963 3.425781,-1.0566406 1.292298,0.00353 2.235025,0.1424348 2.636719,0.3867187 0.343943,0.2091641 0.488707,0.5345502 0.621094,1.3964844 0.210585,1.3710652 0.664154,1.9516832 1.828125,2.3417972 0.383533,0.128542 0.741692,0.263128 0.794922,0.298828 0.05323,0.0357 0.152393,0.243218 0.220703,0.460937 0.116332,0.370796 0.147941,0.400018 0.507812,0.460938 0.587423,0.09944 0.925907,0.334066 0.998047,0.693359 0.03383,0.168493 0.144631,1.148285 0.248047,2.177735 0.192023,1.911506 0.350642,2.739803 0.59375,3.111328 0.119861,0.183177 0.189317,0.203268 0.556641,0.167968 0.495674,-0.04763 0.843186,-0.275459 0.978515,-0.642578 0.06145,-0.166711 0.126429,-1.75502 0.173829,-4.277343 0.05981,-3.182841 0.09989,-4.026688 0.193359,-4.085938 0.0648,-0.041076 0.738335,-0.075427 1.498047,-0.076172 1.119755,-0.0011 1.403197,0.023629 1.492187,0.13086 0.07425,0.08947 0.134007,0.754226 0.185547,2.054687 0.168198,4.244226 0.304003,5.413379 0.675781,5.785156 0.140847,0.14084 0.212716,0.157384 0.353516,0.08203 0.254176,-0.13603 0.69399,-0.857765 1.039063,-1.707032 0.28892,-0.711069 1.634765,-4.980323 1.634765,-5.185547 0,-0.07032 0.323145,-0.101562 1.060547,-0.101562 h 1.060547 v 36.548828 7.111328 c 0.135271,0.0054 0.255486,0.0081 0.398437,0.01367 0.4096,0.01599 0.818909,0.03302 1.228516,0.04883 0.105747,0.0028 0.212411,0.0045 0.318359,0.0078 V 44.5031 2.0323966 H 38.493565 Z M 72.030675,54.583178 v 0.976562 l 1.957031,0.04687 v -1 z" /><path
       style="display:inline;opacity:1;fill:#ffffff;stroke-width:0.0883883;stroke-dasharray:none;paint-order:stroke fill markers"
       d="M 34.029514,69.429047 V 56.922096 h -4.993942 -4.993941 v -3.933282 -3.933281 h 14.93763 14.937631 v 3.932545 3.932546 l -4.971845,0.02283 -4.971844,0.02283 -0.0224,12.484854 -0.0224,12.484854 H 38.97896 34.029518 Z"
       id="path53" /><path
       style="display:inline;opacity:1;fill:#ffffff;fill-opacity:1;stroke-width:0.0441942;stroke-dasharray:none;paint-order:stroke fill markers"
       d="M 23.025165,31.0076 V 15.036794 l 4.430465,-0.03273 c 5.628201,-0.04157 15.826068,-0.0026 16.340796,0.06242 2.308186,0.291657 4.340203,1.295025 5.878654,2.90276 1.86627,1.950318 2.623195,4.464357 2.122289,7.048935 -0.554381,2.860503 -2.789821,5.254545 -6.35471,6.80557 -0.297758,0.12955 -0.541378,0.247303 -0.541378,0.261674 0,0.01437 0.08452,0.06731 0.187825,0.117641 0.565671,0.275609 1.757516,1.377091 2.622044,2.423245 1.473372,1.782909 3.107617,4.257779 4.727527,7.159281 0.928444,1.662982 2.040204,3.917293 2.449549,4.966939 l 0.09288,0.238161 -2.288824,-0.02814 C 51.433428,46.94707 48.874325,46.92159 47.005384,46.90592 L 43.60731,46.87743 43.255001,46.143471 c -0.79699,-1.660353 -2.22324,-4.501879 -2.664278,-5.308054 -1.189647,-2.174562 -2.532963,-4.323457 -3.853914,-6.165088 l -0.475489,-0.662912 -1.646233,-0.01159 -1.646233,-0.01159 v 6.497081 6.497082 h -4.971845 -4.971844 z m 14.821669,-2.990264 c 2.544139,-0.126382 3.589104,-0.66277 4.000058,-2.053259 0.173575,-0.587302 0.225802,-1.414808 0.135351,-2.144577 -0.218892,-1.766063 -1.094459,-2.513098 -3.232178,-2.757704 -0.828038,-0.09475 -2.54187,-0.131779 -4.289658,-0.09269 l -1.491553,0.03336 v 3.507549 3.507548 l 1.093805,0.01263 c 0.601594,0.0069 1.491554,0.01721 1.97769,0.0228 0.486136,0.0056 1.299054,-0.01045 1.806485,-0.03566 z"
       id="path63" /></g></svg>
