<svg width="300" height="90" viewBox="0 0 300 90" fill="none" xmlns="http://www.w3.org/2000/svg">
<path d="M1.83311 0.990234V87.9902H75.8331V55.5938C75.1663 55.6083 74.4989 55.5855 73.8331 55.5644V86.9902H2.83311V1.99023H73.8331V54.6816C74.4989 54.7028 75.1664 54.7251 75.8331 54.709V0.990234H1.83311ZM24.2198 4.80273C23.401 4.79008 21.3296 7.2963 19.9386 8.0918C18.3219 9.01629 15.3425 8.76934 15.3468 8.80664C17.0184 23.246 10.0282 24.7643 8.88975 12.9961C8.87635 12.8576 8.72408 12.9365 8.38194 12.873C8.02525 12.8069 8.06216 12.1381 8.03428 11.9902H5.83311C5.8281 20.0624 5.8292 83.6161 5.83311 83.9902H71.8331V55.4961C71.0452 55.464 70.3462 55.4311 69.5108 55.4199C68.2955 55.4037 67.081 55.4317 65.8663 55.4668C64.6882 55.5224 65.2511 55.4925 64.173 55.5566C63.2995 55.6086 63.2468 54.7257 64.1202 54.6738C65.2146 54.6088 64.6431 54.6403 65.8409 54.584C67.0717 54.5485 68.3028 54.5205 69.5343 54.5371C70.3619 54.5482 71.056 54.5801 71.8331 54.6113V10.9902H69.8331L68.7022 14.7227C68.7022 14.7227 67.5349 18.7006 66.6847 17.9395C65.8345 17.1783 66.1908 10.3563 65.8331 9.99023C65.7288 9.88351 62.9676 9.94088 62.8331 9.99023C62.6987 10.0396 62.7819 17.5204 62.5558 18.4277C62.5139 18.5955 61.789 19.2839 61.1026 19.0078C60.2696 18.6727 60.3306 13.463 59.9776 13.1934C59.7261 13.0012 59.2781 12.8625 59.089 12.8691C58.4228 12.8926 58.6184 12.1547 58.4503 11.9707C58.3082 11.8151 56.9223 11.47 56.6925 11.2793C55.2662 10.0955 56.0859 8.41068 55.171 7.88477C54.2884 7.3774 50.8683 7.38876 50.2921 7.76758C48.3849 9.02151 47.0366 10.2198 45.7491 10.2109C43.7462 10.1972 44.4944 6.16567 41.3956 6.04492C38.6707 5.93874 38.8078 8.3636 37.0128 8.41992C35.3476 8.47217 34.2992 5.28598 32.6925 4.88086C31.5804 5.20836 30.6071 7.64943 29.8155 8.59961C28.7805 9.84206 27.342 9.79534 26.4991 8.41211L26.3897 8.2207C26.1925 7.49328 24.8411 4.81233 24.2198 4.80273ZM37.7335 14.9414C39.5063 14.9468 41.2342 14.9614 42.8331 14.9902C47.4462 15.0735 51.5517 18.6325 51.794 22.9551C52.0364 27.2776 49.1121 30.3312 44.7374 32.0645C48.1935 33.7222 53.7651 43.9851 54.8331 46.9902L43.4327 46.8906C41.8667 43.754 39.9896 39.3161 36.0597 33.9902H32.8331V46.9902H22.8331V14.9902C26.6926 14.9902 32.4152 14.9252 37.7335 14.9414ZM36.7608 20.9727C35.6384 20.958 34.3286 20.989 32.8331 20.9902V27.9902C38.8611 28.0104 41.872 28.5257 41.8409 24.4922C41.8178 21.4844 40.1281 21.0165 36.7608 20.9727ZM23.8331 48.9902H53.8331V56.9902H43.8331V81.9902H33.8331V56.9902H23.8331V48.9902ZM62.9763 53.9909L63.6171 56.5321L71.8262 55.5819L71.8594 54.5212L62.9763 53.9909ZM73.8149 54.6317L73.8331 55.6641L75.8331 55.6211V54.6719L73.8149 54.6317Z" fill="#133995"/>
<path d="M2.83897 2.02344V44.4941V86.9648H38.3272H73.8155V55.5645C73.7018 55.5609 73.5872 55.5597 73.4737 55.5567C73.0606 55.5407 72.6486 55.5259 72.2355 55.5098C72.1045 55.5047 71.9947 55.5031 71.8702 55.4981V84.0488H38.8546C12.5232 84.0488 5.82944 84.0256 5.796 83.9375C5.77294 83.8767 5.76403 67.6599 5.77647 47.8984L5.79991 11.9668L6.92686 11.9434C7.79621 11.9243 8.05343 11.944 8.05381 12.0312C8.05408 12.0935 8.09611 12.2905 8.14561 12.4687C8.22471 12.7535 8.27536 12.7989 8.5753 12.8496L8.91709 12.9082L9.02256 13.7637C9.5333 17.901 10.9891 20.7617 12.5831 20.7617C13.1206 20.7617 13.3983 20.6202 13.88 20.0976C14.8483 19.0471 15.4265 16.8259 15.5362 13.7363C15.584 12.3921 15.4797 10.018 15.3312 9.07226L15.2784 8.74218H16.2569C18.0203 8.74218 19.2582 8.47529 20.1183 7.91015C20.5899 7.60023 20.9479 7.29902 22.3351 6.05273C23.3081 5.1785 23.9045 4.76366 24.1847 4.76366C24.6102 4.76366 25.6036 6.19072 26.2335 7.70702C26.9428 9.41449 28.0411 9.89122 29.2882 9.0332C29.6152 8.80817 30.1148 8.11436 31.0441 6.59179C31.5928 5.69271 32.2406 4.97511 32.5773 4.89062C32.9241 4.80356 33.5254 5.21702 34.1944 6.00195C35.4414 7.46503 36.0306 8.06481 36.378 8.22265C37.1591 8.57743 37.6407 8.38462 38.6886 7.29882C39.6143 6.33958 40.0519 6.0954 40.9776 6.02538C42.4254 5.91589 43.3215 6.54641 44.0206 8.16601C44.7622 9.88386 45.1068 10.2242 46.0108 10.1309C46.673 10.0625 47.3955 9.68722 49.0929 8.53515C50.6483 7.47942 50.6692 7.47345 52.5187 7.47851C53.811 7.48204 54.7537 7.62094 55.1554 7.86523C55.4993 8.07439 55.6441 8.39978 55.7765 9.26171C55.9871 10.6328 56.4406 11.2134 57.6046 11.6035C57.9881 11.7321 58.3463 11.8666 58.3995 11.9023C58.4527 11.938 58.5519 12.1456 58.6202 12.3633C58.7366 12.7341 58.7682 12.7633 59.128 12.8242C59.7155 12.9237 60.0539 13.1583 60.1261 13.5176C60.1599 13.6861 60.2707 14.6659 60.3741 15.6953C60.5662 17.6068 60.7248 18.4351 60.9679 18.8066C61.0877 18.9898 61.1572 19.0099 61.5245 18.9746C62.0202 18.927 62.3677 18.6991 62.503 18.332C62.5645 18.1653 62.6295 16.577 62.6769 14.0547C62.7367 10.8718 62.7768 10.028 62.8702 9.96874C62.935 9.92767 63.6086 9.89332 64.3683 9.89257C65.488 9.89147 65.7715 9.9162 65.8605 10.0234C65.9347 10.1129 65.9945 10.7777 66.046 12.0781C66.2142 16.3223 66.35 17.4915 66.7218 17.8633C66.8626 18.0041 66.9345 18.0207 67.0753 17.9453C67.3295 17.8093 67.7693 17.0875 68.1144 16.2383C68.4033 15.5272 69.7491 11.2579 69.7491 11.0527C69.7491 10.9824 70.0723 10.9512 70.8097 10.9512H71.8702V47.5V54.6113C72.0055 54.6167 72.1257 54.6194 72.2687 54.625C72.6783 54.641 73.0876 54.658 73.4972 54.6738C73.6029 54.6766 73.7096 54.6783 73.8155 54.6816V44.4941V2.02344H38.3272H2.83897ZM71.8644 54.5742V55.5508L73.8214 55.5976V54.5976L71.8644 54.5742Z" fill="#F9F9F9"/>
<path d="M33.8632 69.4201V56.9132H28.8693H23.8753V52.9799V49.0466H38.8129H53.7506V52.9792V56.9117L48.7787 56.9346L43.8069 56.9574L43.7845 69.4422L43.7621 81.9271H38.8126H33.8632L33.8632 69.4201Z" fill="white"/>
<path d="M22.8588 30.9987V15.0279L27.2893 14.9952C32.9175 14.9536 43.1154 14.9926 43.6301 15.0576C45.9383 15.3493 47.9703 16.3527 49.5088 17.9604C51.375 19.9107 52.132 22.4247 51.6311 25.0093C51.0767 27.8698 48.8412 30.2639 45.2763 31.8149C44.9786 31.9444 44.735 32.0622 44.735 32.0766C44.735 32.0909 44.8195 32.1439 44.9228 32.1942C45.4885 32.4698 46.6803 33.5713 47.5448 34.6175C49.0182 36.4004 50.6525 38.8752 52.2724 41.7767C53.2008 43.4397 54.3126 45.694 54.7219 46.7437L54.8148 46.9818L52.526 46.9537C51.2671 46.9382 48.708 46.9127 46.8391 46.8971L43.441 46.8686L43.0887 46.1346C42.2917 44.4743 40.8654 41.6327 40.4244 40.8266C39.2348 38.652 37.8914 36.5031 36.5705 34.6615L36.095 33.9986L34.4488 33.987L32.8025 33.9754V40.4725V46.9695H27.8307H22.8588V30.9987ZM37.6805 28.0085C40.2247 27.8821 41.2696 27.3457 41.6806 25.9552C41.8542 25.3679 41.9064 24.5404 41.8159 23.8106C41.597 22.0446 40.7215 21.2975 38.5837 21.0529C37.7557 20.9582 36.0419 20.9212 34.2941 20.9602L32.8025 20.9936V24.5012V28.0087L33.8963 28.0213C34.4979 28.0282 35.3879 28.0385 35.874 28.0441C36.3602 28.0497 37.1731 28.0337 37.6805 28.0085Z" fill="white"/>
<path d="M82.3722 48.1523V50.7539H297.45V48.1564L82.3722 48.1523Z" fill="white"/>
<path d="M284.325 40.6467C282.694 40.6011 282.58 40.59 282.083 40.4288C280.863 40.033 279.801 39.4313 279.223 38.8077C278.212 37.7177 277.684 36.4769 277.595 34.9828L277.558 34.3525L279.582 34.3111C280.696 34.2883 282.035 34.2696 282.558 34.2695C283.636 34.2694 283.524 34.2072 283.607 34.8499C283.666 35.3058 283.802 35.5663 284.19 35.9732C284.624 36.4283 284.907 36.5988 285.505 36.7637C287.416 37.2908 289.475 36.8414 289.992 35.7845C290.138 35.4855 290.165 35.3406 290.189 34.7272C290.21 34.1663 290.194 33.9592 290.112 33.745C289.967 33.3645 289.259 32.6945 288.752 32.458C288.064 32.1369 286.491 31.7254 285.283 31.5503C283.61 31.3079 282.922 31.1005 281.637 30.4511C279.705 29.474 278.778 28.5759 278.477 27.3886C278.339 26.8424 278.279 24.3898 278.387 23.7164C278.531 22.8236 278.859 22.2411 279.646 21.4815C280.623 20.5391 281.977 19.8912 283.418 19.6773C284.946 19.4504 289.04 19.4322 290.537 19.6457C293.45 20.061 295.379 22.0081 295.696 24.8528C295.733 25.1824 295.763 25.5094 295.763 25.5795C295.763 25.7059 295.74 25.7069 292.9 25.7069H290.038L289.967 25.2211C289.837 24.3241 289.502 23.6717 289.013 23.3634C288.638 23.1267 288.131 23.0145 287.263 22.976C285.168 22.8831 284.361 23.4085 284.362 24.8632C284.363 26.3326 285.1 26.7702 288.879 27.5477C291.267 28.039 292.12 28.3066 293.362 28.9534C295.514 30.0745 295.95 30.9152 295.95 33.9421C295.95 36.3975 295.651 37.3643 294.544 38.4838C293.97 39.0641 293.138 39.7287 292.638 40.0058C292.233 40.2301 291.629 40.4154 290.878 40.5457C290.201 40.6632 286.792 40.7157 284.325 40.6467Z" fill="white"/>
<path d="M267.184 40.6602C267.066 40.4969 265.355 38.0008 263.382 35.1133L259.794 29.8633L259.778 35.3789L259.762 40.8945H256.544H253.325V30.198V19.5015L253.747 19.5413C253.979 19.5632 255.21 19.5832 256.481 19.5857L258.794 19.5903L263.294 25.3497L267.794 31.1091L267.81 25.283L267.826 19.457H270.794H273.763V30.207V40.957H270.581H267.398L267.184 40.6602Z" fill="white"/>
<path d="M227.954 40.6289C228.023 40.4484 229.817 35.632 231.941 29.9258L235.803 19.5508H239.288H242.772L246.956 30.1445C249.257 35.9711 251.155 40.7875 251.174 40.8477C251.207 40.9509 251.016 40.957 247.751 40.9563L244.294 40.9556L243.482 38.957L242.669 36.9585L239.447 36.9578L236.224 36.957L235.36 38.957L234.497 40.957H231.163H227.83L227.954 40.6289ZM241.763 33.0082C241.763 32.9235 239.519 25.8798 239.479 25.8402C239.465 25.8259 239.439 25.8533 239.421 25.9012C239.325 26.1614 237.263 32.9583 237.263 33.0148C237.263 33.0615 237.948 33.082 239.513 33.082C241.201 33.082 241.763 33.0636 241.763 33.0082Z" fill="white"/>
<path d="M206.325 30.217V19.5396L209.961 19.4956C211.96 19.4715 215.061 19.4697 216.851 19.4917C220.439 19.5359 220.739 19.5639 221.732 19.9482C222.815 20.3673 223.921 21.2332 224.561 22.1626C224.957 22.7379 225.083 22.9898 225.299 23.6445C225.459 24.1286 225.475 24.2591 225.478 25.1133C225.481 25.9084 225.46 26.1248 225.34 26.5382C224.85 28.2281 223.586 29.5653 221.523 30.5739C221.172 30.7459 220.878 30.8995 220.87 30.9153C220.862 30.9312 221.025 31.0698 221.232 31.2234C222.646 32.2766 224.583 34.9956 226.362 38.4258C226.82 39.3099 227.513 40.7759 227.513 40.8628C227.513 40.9063 225.467 40.9024 222.507 40.8532L220.032 40.812L219.06 38.8376C217.8 36.2752 216.878 34.6773 215.569 32.7859L215.169 32.2084L214.028 32.2077L212.888 32.207V36.5508V40.8945H209.607H206.325V30.217ZM217.073 28.1458C217.771 28.0223 218.09 27.8826 218.429 27.5531C218.845 27.1481 218.967 26.7629 218.964 25.8673C218.96 24.8164 218.69 24.204 218.087 23.8754C217.457 23.533 217.216 23.5019 214.966 23.4726L212.888 23.4456V25.8232V28.2008L213.247 28.2279C213.837 28.2725 216.705 28.2109 217.073 28.1458Z" fill="white"/>
<path d="M190.138 32.6758V24.5195H186.919H183.7V21.9883V19.457H193.325H202.95V21.9801V24.5032L202.716 24.5419C202.587 24.5632 201.139 24.581 199.497 24.5813L196.513 24.582V32.707V40.832H193.325H190.138V32.6758Z" fill="white"/>
<path d="M173.825 30.2383V19.5195H176.794H179.763V30.2383V40.957H176.794H173.825V30.2383Z" fill="white"/>
<path d="M149.825 30.1445V19.457H156.662C162.502 19.457 163.572 19.4708 163.997 19.5515C166.267 19.9822 168.092 21.4956 168.763 23.5043C168.931 24.0063 168.972 24.2405 168.998 24.8376C169.034 25.6811 168.961 26.1862 168.695 26.9209C168.446 27.6098 167.976 28.314 167.358 28.9258C166.721 29.556 166.067 30.008 165.083 30.498L164.31 30.883L164.578 31.0524C164.992 31.3137 165.949 32.2719 166.5 32.977C167.827 34.6734 169.503 37.4878 170.578 39.8256C170.817 40.3449 171.013 40.7838 171.013 40.8009C171.013 40.8462 166.585 40.839 164.934 40.791L163.523 40.7499L162.826 39.3066C161.596 36.7568 160.759 35.2727 159.432 33.2852L158.67 32.1445H157.529H156.388V36.4883V40.832H153.107H149.825V30.1445ZM160.793 28.057C162.033 27.7742 162.477 27.1864 162.473 25.832C162.469 24.4704 162.028 23.839 160.874 23.5434C160.568 23.465 160.032 23.436 158.435 23.4118L156.388 23.3808V25.8014V28.222L158.372 28.1892C159.865 28.1646 160.465 28.1318 160.793 28.057Z" fill="white"/>
<path d="M130.325 30.207V19.5195H138.044H145.763V21.7383V23.957H141.013H136.263V26.1133V28.2695H140.263H144.263V30.1133V31.957H140.263H136.263V36.4258V40.8945H133.294H130.325V30.207Z" fill="white"/>
<path d="M108.263 30.1968V19.4368L109.997 19.4779C110.951 19.5006 114.889 19.5192 118.747 19.5192L125.763 19.5194V21.7381V23.9569H120.013H114.263V25.9881V28.0194H119.482H124.7V29.9881V31.9569H119.45H114.2V34.1131V36.2694H120.232H126.263V38.6131V40.9569H117.263H108.263V30.1968Z" fill="white"/>
<path d="M101.513 40.8912C99.5706 40.8685 97.974 40.8459 97.9648 40.841C97.9556 40.836 97.5153 39.9531 96.9862 38.8788C95.7185 36.3049 94.7529 34.6294 93.5285 32.8788L93.0585 32.207H91.9419H90.8253V36.5507V40.8945H87.544H84.2628V30.2047V19.5149L91.2784 19.5352C98.2144 19.5554 98.2997 19.5571 98.794 19.6892C100.679 20.1929 102.293 21.4872 102.984 23.0504C103.321 23.8119 103.417 24.2981 103.411 25.207C103.406 25.9326 103.381 26.1295 103.236 26.6132C102.732 28.2913 101.468 29.6168 99.4347 30.6002C99.0651 30.7789 98.7628 30.9393 98.7629 30.9566C98.763 30.974 98.8966 31.0722 99.0598 31.1747C99.4482 31.4189 100.374 32.3501 100.896 33.0208C102.369 34.9155 104.542 38.6568 105.328 40.651L105.448 40.957L105.246 40.9447C105.135 40.9379 103.455 40.9139 101.513 40.8912ZM94.6464 28.2066C95.8118 28.073 96.4018 27.7463 96.7079 27.0649C96.8374 26.7766 96.8547 26.6427 96.8556 25.9257C96.857 24.727 96.6481 24.249 95.9588 23.8739C95.3831 23.5606 94.9765 23.509 92.8097 23.4745L90.8253 23.443V25.8562V28.2695L92.4659 28.269C93.3683 28.2687 94.3495 28.2406 94.6464 28.2066Z" fill="white"/>
<path d="M211.245 69.9616C210.988 69.9601 210.476 69.9496 210.476 69.9496C210.393 69.7393 210.252 69.2945 209.96 68.6201C209.368 67.2511 208.508 65.8578 207.95 65.2012C207.722 64.9343 207.253 64.3279 206.325 64.1267H205.71H204.437V67.1584V69.9402H203.285H201.953V63.1743V56.4631L205.344 56.4759C209.167 56.4903 209.215 56.4896 209.487 56.5726C210.526 56.8888 211.416 57.7014 211.797 58.6828C211.983 59.1609 212.036 59.4661 212.032 60.0367C212.029 60.4923 212.016 60.6158 211.936 60.9196C211.658 61.9731 210.797 62.8052 209.676 63.4226C209.472 63.5348 209.328 63.6271 209.256 63.6464C209.187 63.665 209.33 63.7189 209.42 63.7833C209.634 63.9366 210.31 64.5212 210.598 64.9423C211.495 66.2566 212.737 68.3062 213.321 69.9482C213.063 69.9482 212.644 69.9577 212.259 69.9577C211.875 69.9577 211.583 69.9636 211.245 69.9616ZM209.04 61.6834C209.647 61.3148 209.914 60.5162 209.914 60.0661C209.915 59.3135 209.433 58.7712 209.053 58.5357C208.736 58.339 208.511 58.3066 207.317 58.285L204.422 58.2652V60.4443V62.092L207.127 62.0916C208.122 62.0915 208.591 61.9559 209.04 61.6834Z" fill="white"/>
<path d="M193.499 56.1582C192.853 56.1584 192.131 56.1738 191.493 56.3887C190.64 56.6763 189.811 57.1356 189.169 57.7676C188.388 58.5364 187.833 59.5429 187.448 60.5686C187.228 61.1526 187.176 61.9391 187.156 62.6342C187.126 63.6575 187.289 65.313 187.405 65.6953C187.708 66.6916 188.209 67.6882 188.97 68.399C189.635 69.0197 190.536 69.3833 191.419 69.6016C192.67 69.9109 194.023 69.9777 195.284 69.7109C196.303 69.4954 197.358 69.0919 198.105 68.3652C198.675 67.8096 199.244 66.5534 199.394 65.9197C199.598 65.0538 199.665 64.1535 199.661 63.2636C199.656 62.2776 199.649 61.2588 199.338 60.3233C199.014 59.3524 198.503 58.3999 197.776 57.6797C197.179 57.0881 196.325 56.6635 195.593 56.418C194.861 56.1724 194.146 56.158 193.499 56.1582ZM194.901 58.5848C195.26 58.7024 195.634 58.8419 195.912 59.098C196.357 59.5084 196.662 60.0744 196.862 60.6455C197.129 61.406 197.167 62.2387 197.163 63.0446C197.159 63.7061 197.07 64.3731 196.894 65.0107C196.72 65.6408 196.577 66.3432 196.125 66.8149C195.796 67.158 195.303 67.3323 194.837 67.428C193.945 67.6112 192.972 67.6048 192.106 67.3211C191.638 67.1676 191.21 66.8609 190.882 66.4933C190.405 65.9583 190.101 65.2707 189.888 64.5861C189.718 64.0366 189.671 63.448 189.679 62.8727C189.688 62.2062 189.732 61.5158 189.974 60.895C190.229 60.2454 190.635 59.6329 191.152 59.1648C191.461 58.8853 191.856 58.7041 192.249 58.568C192.651 58.4292 193.081 58.3563 193.507 58.3554C193.978 58.3543 194.453 58.4382 194.901 58.5848Z" fill="white"/>
<path d="M173.794 69.7578V67.5195V56.332C176.926 56.332 180.057 56.3318 181.903 56.959C183.75 57.5862 184.377 58.8405 184.657 60.002C184.938 61.1634 185.016 62.1494 185.016 63.2179C185.016 64.2919 184.939 65.4983 184.69 66.5254C184.442 67.5525 183.836 68.6692 181.987 69.2129C180.139 69.7565 176.967 69.7576 173.794 69.7578ZM178.043 67.3976C179.082 67.394 179.859 67.3301 180.554 67.1046C181.666 66.744 182.181 66.0914 182.412 65.3293C182.642 64.5672 182.654 64.3575 182.66 63.5625C182.666 62.7675 182.666 61.9995 182.496 61.166C182.326 60.3325 181.644 59.4325 180.526 58.9824C179.409 58.5323 178.112 58.5332 176.216 58.5332V66.1875V67.3605C176.873 67.3801 177.42 67.3998 178.043 67.3976Z" fill="white"/>
<mask id="mask0_187_915" style="mask-type:luminance" maskUnits="userSpaceOnUse" x="120" y="51" width="24" height="24">
<path d="M120.252 51.4592H143.268V74.955H120.252V51.4592ZM131.76 59.9506L130.506 64.2043H133.003L131.76 59.9506Z" fill="white"/>
</mask>
<g mask="url(#mask0_187_915)">
<path d="M125.252 69.955H128.258L129.257 66.6957H134.262L135.262 69.955H138.268L133.268 56.4592H130.257L125.252 69.955Z" fill="white"/>
</g>
<path d="M148.259 56.4578L153.507 69.9591H156.009L160.766 56.4578H158.263L154.761 65.4609L150.761 56.457L148.259 56.4578Z" fill="white"/>
<path d="M139.774 56.446H142.368V67.446H149.282V69.9539H139.766L139.774 56.446Z" fill="white"/>
<mask id="mask1_187_915" style="mask-type:luminance" maskUnits="userSpaceOnUse" x="154" y="51" width="24" height="24">
<path d="M154.516 51.4546H177.531V74.9504H154.516V51.4546ZM166.024 59.9459L164.77 64.1996H167.267L166.024 59.9459Z" fill="white"/>
</mask>
<g mask="url(#mask1_187_915)">
<path d="M159.516 69.9504H162.521L163.521 66.6911H168.526L169.526 69.9504H172.531L167.532 56.4546H164.521L159.516 69.9504Z" fill="white"/>
</g>
<path d="M117.499 69.9309C117.284 69.9309 117.153 69.8935 116.825 69.787C116.019 69.5257 115.318 69.1285 114.936 68.7168C114.269 67.9972 113.92 67.178 113.862 66.1916L113.837 65.4264L115.013 65.4537C115.193 65.4579 115.966 65.4595 116.101 65.4575C116.644 65.4496 116.478 65.4972 116.533 65.9216C116.572 66.2225 116.766 66.8751 117.022 67.1438C117.309 67.4442 117.765 67.5616 118.161 67.6656C119.086 67.9086 120.641 67.5547 121.096 66.9253C121.331 66.6008 121.406 66.4278 121.422 66.0229C121.436 65.6525 121.394 65.1756 121.313 64.9365C121.061 64.5056 120.992 64.4399 120.668 64.2638C120.428 64.1338 119.476 63.9195 118.678 63.8039C117.573 63.6439 116.671 63.6286 115.823 63.1998C114.547 62.5547 114.36 61.9618 114.162 61.178C114.07 60.8174 114.105 59.1981 114.177 58.7536C114.272 58.1642 114.488 57.7796 115.008 57.2782C115.652 56.656 116.922 56.2282 117.873 56.087C118.881 55.9372 119.43 56.044 120.413 56.2146C122.231 56.5299 123.242 58.4461 123.377 59.5039C123.402 59.7214 123.422 59.9373 123.422 59.9836C123.422 60.0671 123.504 60.0677 122.005 60.0677H121.117L121.07 59.747C120.984 59.1548 120.763 58.7241 120.44 58.5205C120.193 58.3643 119.608 58.2902 119.035 58.2648C117.652 58.2035 116.744 58.5503 116.745 59.5107C116.745 60.4808 116.458 60.9023 118.953 61.4156C120.53 61.7399 121.013 61.8009 121.808 62.2733C123.236 63.1228 124.001 64.4203 124.017 65.4342C124.042 67.0551 123.483 67.7639 122.753 68.5029C122.374 68.886 121.824 69.3248 121.494 69.5078C121.227 69.6558 121.031 69.7782 120.535 69.8642C120.088 69.9417 119.935 69.9308 118.305 69.9309L117.499 69.9309Z" fill="white"/>
<path d="M98.255 56.4414H100.849V67.4414H107.763V69.9492H98.2472L98.255 56.4414Z" fill="white"/>
<path d="M86.1626 56.4539H95.7307V58.5641H88.6596V61.6356H95.2556V63.7569H88.6596V67.4472H95.7528V69.9552H86.1516L86.1626 56.4539Z" fill="white"/>
</svg>
