<svg width="603" height="603" viewBox="0 0 603 603" fill="none" xmlns="http://www.w3.org/2000/svg">
<g opacity="0.65">
<g filter="url(#filter0_i_1_61)">
<path d="M298.036 20.7695C295.448 21.6522 292.742 24.0649 291.33 26.6542C290.448 28.2431 290.271 32.4802 290.036 66.3173L289.742 104.156L267.387 82.5592C254.209 69.8482 244.209 60.5503 242.973 60.0795C241.679 59.491 239.679 59.2557 237.267 59.4322C234.267 59.6088 233.208 59.9619 231.384 61.433C228.443 63.7869 226.501 67.612 226.501 71.1428C226.501 72.8494 226.972 74.7325 227.854 76.2625C228.619 77.7337 237.679 86.9139 250.915 99.7426C262.916 111.277 276.564 124.576 281.388 129.284L290.036 137.876L289.918 162.18L289.742 186.425L276.27 173.773C268.858 166.77 262.092 160.708 261.21 160.238C258.68 158.943 255.092 158.531 252.621 159.355C247.091 161.12 244.15 165.24 244.15 171.007C244.15 174.008 244.444 174.891 246.091 177.245C247.091 178.716 257.445 188.837 269.034 199.724L290.036 219.497V246.331V273.225L286.918 269.988C285.271 268.222 268.799 251.274 250.327 232.326C231.914 213.377 214.089 195.075 210.735 191.662C207.206 188.072 204.794 185.071 204.97 184.6C205.088 184.13 205.382 176.48 205.617 167.594C205.794 158.708 206.206 144.525 206.5 136.11C207.382 111.1 207.382 102.744 206.323 100.743C204.088 96.4472 200.205 94.0344 195.499 94.0344C189.675 94.0933 184.557 98.3303 183.91 103.627C183.733 104.98 183.322 115.867 182.969 127.872C182.38 149.586 181.91 161.238 181.557 161.532C181.498 161.65 178.909 159.12 175.85 155.942C144.907 123.988 123.552 102.567 121.964 101.861C115.022 98.9776 106.315 103.921 105.492 111.159C104.845 117.103 104.904 117.22 125.788 138.641C136.377 149.527 149.26 162.768 154.437 168.064L163.849 177.774L150.907 177.362C143.789 177.127 130.317 176.715 120.905 176.362C102.903 175.773 101.433 175.95 97.8443 178.304C95.3735 180.01 92.9615 184.718 92.9615 187.837C93.0203 193.31 97.0795 198.253 102.492 199.312C104.198 199.665 116.728 200.195 130.317 200.548C143.907 200.901 162.438 201.431 171.497 201.725L187.969 202.255L191.793 206.315C193.911 208.551 210.735 225.794 229.149 244.684C247.621 263.574 264.74 281.228 267.269 283.876L271.917 288.819H244.62H217.324L197.381 267.457C186.439 255.747 176.556 245.507 175.497 244.742C172.732 242.683 167.614 242.389 164.026 243.977C160.026 245.743 157.084 250.392 157.084 254.923C157.143 258.689 159.32 261.69 171.85 274.99C178.674 282.287 184.145 288.407 184.027 288.584C183.851 288.701 172.85 288.642 159.496 288.466L135.318 288.054L130.788 283.287C128.258 280.639 115.257 267.281 101.903 253.511C74.8425 225.735 73.8424 224.911 68.3125 225.499C64.3711 225.852 60.9002 228.089 59.0177 231.443C57.194 234.68 57.194 239.505 59.0177 242.8C59.7236 244.095 69.6068 254.629 80.9018 266.163C92.2556 277.697 101.609 287.407 101.668 287.701C101.786 287.995 86.7846 288.231 65.3123 288.231C30.0154 288.231 28.7212 288.289 26.4857 289.408C23.0149 291.173 20.0146 295.94 20.0146 299.647C20.0146 304.002 23.2502 308.768 27.3682 310.651C29.5448 311.652 32.1921 311.77 66.0771 311.77C86.0198 311.77 102.374 311.946 102.374 312.123C102.374 312.299 92.785 322.244 81.0782 334.19C69.3126 346.136 59.1353 357.082 58.3706 358.435C56.4293 361.907 56.7234 367.145 59.0177 370.44C62.7827 375.854 70.3715 377.267 75.5484 373.441C76.5485 372.676 87.9611 361.201 100.903 347.961C113.787 334.661 126.905 321.244 129.964 318.066L135.612 312.358L159.849 312.476L184.145 312.652L171.791 325.599C164.967 332.719 158.908 339.545 158.261 340.722C156.672 343.665 156.672 348.726 158.261 351.786C161.143 357.376 168.556 359.671 174.262 356.729C175.144 356.258 185.145 346.136 196.558 334.131L217.265 312.358H236.502C247.091 312.358 260.151 312.535 265.504 312.77L275.329 313.123L268.681 319.949C250.503 338.78 198.44 392.743 193.911 397.51L188.734 402.983H147.966C119.081 402.983 106.668 403.159 105.257 403.63C100.021 405.396 97.0795 409.574 97.0795 415.223C97.0795 419.578 99.315 423.462 103.08 425.463L105.61 426.816L135.553 426.993L165.497 427.169L157.261 435.525C145.554 447.471 116.199 477.895 111.963 482.486C107.257 487.605 106.315 490.606 107.786 495.609C109.316 500.611 115.787 504.848 120.493 503.847C125.14 502.847 126.552 501.552 153.966 473.129L181.498 444.588L181.792 476.012C182.027 498.433 182.263 507.79 182.792 508.614C183.851 510.497 187.263 513.498 189.028 514.145C193.263 515.734 199.205 514.381 202.205 511.144C205.382 507.731 205.323 508.849 205.323 462.595L205.382 419.754L220.207 404.454C228.325 396.039 246.209 377.502 259.975 363.261C273.682 349.02 286.094 336.191 287.447 334.72L290.036 332.072L289.977 359.142L289.918 386.211L268.387 406.514C256.563 417.695 246.326 427.699 245.679 428.817C244.267 431.288 244.15 436.643 245.503 439.174C246.679 441.528 249.915 444.529 251.974 445.294C254.327 446.177 258.563 446.118 260.916 445.118C262.034 444.647 266.857 440.527 271.681 436.055C276.446 431.583 282.506 425.816 285.212 423.285L290.036 418.754V443.058V467.421L259.445 497.021C239.032 516.735 228.443 527.445 227.619 529.034C225.854 532.447 226.266 537.272 228.501 540.686C231.619 545.452 238.267 547.159 243.562 544.569C244.679 544.04 255.562 533.918 267.681 522.149L289.742 500.787L290.036 537.625C290.389 578.642 290.095 576.229 294.389 579.996C298.919 583.938 305.272 583.938 309.802 579.996C314.096 576.229 313.802 578.583 314.155 537.802L314.449 501.14L336.216 522.561C354.217 540.332 358.512 544.216 360.806 545.099C366.277 547.159 372.513 544.805 375.219 539.509C377.101 535.919 376.866 530.505 374.748 527.621C373.925 526.503 359.982 512.557 343.746 496.55L314.155 467.538V443.117V418.695L318.744 423.05C335.451 438.939 341.451 444.352 343.275 445.118C345.628 446.118 349.864 446.177 352.217 445.294C354.453 444.47 357.629 441.351 358.629 439.056C359.688 436.643 359.688 431.759 358.629 429.229C358.1 427.993 350.099 420.049 336.039 406.749L314.214 386.211V359.142L314.155 332.072L323.45 341.487C343.922 362.202 398.574 418.46 398.927 419.107C399.103 419.46 399.044 425.286 398.809 432.112C398.574 438.88 398.221 450.826 397.985 458.594C397.75 466.361 397.397 478.955 397.162 486.546C396.632 501.317 396.868 503.259 399.28 506.436C402.221 510.379 406.986 511.968 411.869 510.673C415.222 509.732 419.105 505.907 419.928 502.729C420.516 500.493 420.811 492.843 421.517 465.067C421.693 458.24 421.987 450.59 422.164 447.942L422.517 443.176L434.106 455.004C440.459 461.536 453.048 474.365 461.99 483.604C471.403 493.255 479.345 500.964 480.756 501.67C484.816 503.906 490.581 503.141 494.052 499.904C497.522 496.668 498.758 490.43 496.758 486.193C496.228 485.134 483.404 471.481 468.226 455.887C453.048 440.292 440.695 427.463 440.812 427.404C440.871 427.346 454.578 427.699 471.285 428.169L501.582 429.111L504.523 427.64C506.347 426.757 508.053 425.286 509.17 423.697C510.641 421.579 510.935 420.578 510.935 417.518C510.935 412.928 509.406 409.809 506.053 407.455C503.699 405.808 503.17 405.69 495.464 405.278C491.051 405.042 471.52 404.395 452.107 403.866L416.81 402.865L407.986 393.979C389.338 375.089 332.039 316.301 330.686 314.653L329.274 312.946H356.159H383.043L384.631 314.653C415.869 348.078 425.046 357.612 426.811 358.435C429.87 359.907 434.576 359.73 437.753 358.082C442.93 355.317 445.224 348.49 442.812 342.959C442.342 341.84 436.224 334.779 429.223 327.364L416.575 313.829L440.812 313.653L465.049 313.476L472.403 321.067C476.462 325.246 489.816 339.192 502.111 352.021C515.465 365.968 525.289 375.737 526.466 376.266C530.113 378.032 533.172 378.032 536.761 376.266C540.82 374.265 542.938 371.264 543.408 366.968C543.997 361.378 543.408 360.672 520.289 336.544C508.7 324.481 499.052 314.3 498.934 314.006C498.817 313.594 510.818 313.535 535.114 313.829C562.057 314.123 572.175 314.065 574.058 313.594C578.941 312.24 583 307.062 583 302.06C583 297.175 578.999 291.938 574.352 290.643C572.881 290.231 559.233 289.996 535.408 289.996H498.699L520.289 268.222C535.349 252.981 542.232 245.625 542.997 243.919C547.585 233.797 536.878 223.734 526.819 228.618C525.878 229.089 511.582 243.095 495.052 259.69L465.049 289.937L441.283 289.525L417.516 289.113L429.988 275.99C436.871 268.752 442.871 261.985 443.342 260.867C444.342 258.454 444.401 254.276 443.518 251.922C442.754 249.862 439.753 246.626 437.4 245.449C435.106 244.213 429.694 244.213 427.341 245.449C425.223 246.567 424.87 246.861 402.221 270.694L384.455 289.408H358.159C334.922 289.408 329.921 289.172 332.274 288.113C332.51 287.995 344.04 276.167 357.982 261.749C371.866 247.332 390.632 227.971 399.633 218.673L416.046 201.725L457.99 201.607L499.934 201.431L502.17 199.607C506.229 196.37 506.817 195.134 506.817 189.956C506.817 185.719 506.7 185.189 504.994 183.07C504.052 181.835 502.052 180.246 500.64 179.481C498.052 178.186 497.993 178.186 468.344 178.186H438.694L444.224 172.419C447.283 169.3 459.931 156.177 472.403 143.29C484.874 130.402 495.64 118.868 496.346 117.691C498.111 114.808 498.17 109.629 496.522 106.392C493.64 100.802 486.286 98.448 480.698 101.39C479.227 102.096 469.461 112.042 434.812 147.88C428.517 154.353 423.164 159.708 422.928 159.826C422.634 159.943 422.399 146.409 422.399 129.225V98.448L421.046 96.0941C420.34 94.8583 418.575 92.9752 417.222 92.0336C415.045 90.5036 414.104 90.2094 411.045 90.2094C406.457 90.2094 403.339 91.7394 400.927 95.1525L399.162 97.683L398.985 141.23L398.868 184.836L396.397 187.543C395.044 189.014 376.042 208.787 354.158 231.384L314.449 272.577L314.273 245.507L314.096 218.496L317.861 214.966C358.453 176.833 358.041 177.245 359.1 172.184C360.159 167.417 355.688 160.708 350.57 159.355C347.57 158.531 343.863 159.002 341.51 160.473C340.51 161.062 334.098 166.887 327.215 173.419C320.332 179.893 314.567 185.248 314.449 185.248C314.273 185.248 314.155 174.479 314.214 161.238V137.287L344.275 107.864C361.688 90.7978 374.748 77.4983 375.395 76.2625C376.748 73.6732 376.866 68.9066 375.689 66.1996C374.689 63.9046 371.513 60.7857 369.277 59.9619C366.63 58.9614 361.983 59.1968 359.571 60.4326C358.394 61.08 347.687 71.1428 335.804 82.8534L314.214 104.097L314.038 66.2585C313.861 24.1827 314.096 26.7131 309.802 22.9469C306.449 20.0045 302.272 19.2395 298.036 20.7695Z" fill="url(#paint0_linear_1_61)"/>
</g>
<g filter="url(#filter1_f_1_61)">
<path d="M298.036 20.7695C295.448 21.6522 292.742 24.0649 291.33 26.6542C290.448 28.2431 290.271 32.4802 290.036 66.3173L289.742 104.156L267.387 82.5592C254.209 69.8482 244.209 60.5503 242.973 60.0795C241.679 59.491 239.679 59.2557 237.267 59.4322C234.267 59.6088 233.208 59.9619 231.384 61.433C228.443 63.7869 226.501 67.612 226.501 71.1428C226.501 72.8494 226.972 74.7325 227.854 76.2625C228.619 77.7337 237.679 86.9139 250.915 99.7426C262.916 111.277 276.564 124.576 281.388 129.284L290.036 137.876L289.918 162.18L289.742 186.425L276.27 173.773C268.858 166.77 262.092 160.708 261.21 160.238C258.68 158.943 255.092 158.531 252.621 159.355C247.091 161.12 244.15 165.24 244.15 171.007C244.15 174.008 244.444 174.891 246.091 177.245C247.091 178.716 257.445 188.837 269.034 199.724L290.036 219.497V246.331V273.225L286.918 269.988C285.271 268.222 268.799 251.274 250.327 232.326C231.914 213.377 214.089 195.075 210.735 191.662C207.206 188.072 204.794 185.071 204.97 184.6C205.088 184.13 205.382 176.48 205.617 167.594C205.794 158.708 206.206 144.525 206.5 136.11C207.382 111.1 207.382 102.744 206.323 100.743C204.088 96.4472 200.205 94.0344 195.499 94.0344C189.675 94.0933 184.557 98.3303 183.91 103.627C183.733 104.98 183.322 115.867 182.969 127.872C182.38 149.586 181.91 161.238 181.557 161.532C181.498 161.65 178.909 159.12 175.85 155.942C144.907 123.988 123.552 102.567 121.964 101.861C115.022 98.9776 106.315 103.921 105.492 111.159C104.845 117.103 104.904 117.22 125.788 138.641C136.377 149.527 149.26 162.768 154.437 168.064L163.849 177.774L150.907 177.362C143.789 177.127 130.317 176.715 120.905 176.362C102.903 175.773 101.433 175.95 97.8443 178.304C95.3735 180.01 92.9615 184.718 92.9615 187.837C93.0203 193.31 97.0795 198.253 102.492 199.312C104.198 199.665 116.728 200.195 130.317 200.548C143.907 200.901 162.438 201.431 171.497 201.725L187.969 202.255L191.793 206.315C193.911 208.551 210.735 225.794 229.149 244.684C247.621 263.574 264.74 281.228 267.269 283.876L271.917 288.819H244.62H217.324L197.381 267.457C186.439 255.747 176.556 245.507 175.497 244.742C172.732 242.683 167.614 242.389 164.026 243.977C160.026 245.743 157.084 250.392 157.084 254.923C157.143 258.689 159.32 261.69 171.85 274.99C178.674 282.287 184.145 288.407 184.027 288.584C183.851 288.701 172.85 288.642 159.496 288.466L135.318 288.054L130.788 283.287C128.258 280.639 115.257 267.281 101.903 253.511C74.8425 225.735 73.8424 224.911 68.3125 225.499C64.3711 225.852 60.9002 228.089 59.0177 231.443C57.194 234.68 57.194 239.505 59.0177 242.8C59.7236 244.095 69.6068 254.629 80.9018 266.163C92.2556 277.697 101.609 287.407 101.668 287.701C101.786 287.995 86.7846 288.231 65.3123 288.231C30.0154 288.231 28.7212 288.289 26.4857 289.408C23.0149 291.173 20.0146 295.94 20.0146 299.647C20.0146 304.002 23.2502 308.768 27.3682 310.651C29.5448 311.652 32.1921 311.77 66.0771 311.77C86.0198 311.77 102.374 311.946 102.374 312.123C102.374 312.299 92.785 322.244 81.0782 334.19C69.3126 346.136 59.1353 357.082 58.3706 358.435C56.4293 361.907 56.7234 367.145 59.0177 370.44C62.7827 375.854 70.3715 377.267 75.5484 373.441C76.5485 372.676 87.9611 361.201 100.903 347.961C113.787 334.661 126.905 321.244 129.964 318.066L135.612 312.358L159.849 312.476L184.145 312.652L171.791 325.599C164.967 332.719 158.908 339.545 158.261 340.722C156.672 343.665 156.672 348.726 158.261 351.786C161.143 357.376 168.556 359.671 174.262 356.729C175.144 356.258 185.145 346.136 196.558 334.131L217.265 312.358H236.502C247.091 312.358 260.151 312.535 265.504 312.77L275.329 313.123L268.681 319.949C250.503 338.78 198.44 392.743 193.911 397.51L188.734 402.983H147.966C119.081 402.983 106.668 403.159 105.257 403.63C100.021 405.396 97.0795 409.574 97.0795 415.223C97.0795 419.578 99.315 423.462 103.08 425.463L105.61 426.816L135.553 426.993L165.497 427.169L157.261 435.525C145.554 447.471 116.199 477.895 111.963 482.486C107.257 487.605 106.315 490.606 107.786 495.609C109.316 500.611 115.787 504.848 120.493 503.847C125.14 502.847 126.552 501.552 153.966 473.129L181.498 444.588L181.792 476.012C182.027 498.433 182.263 507.79 182.792 508.614C183.851 510.497 187.263 513.498 189.028 514.145C193.263 515.734 199.205 514.381 202.205 511.144C205.382 507.731 205.323 508.849 205.323 462.595L205.382 419.754L220.207 404.454C228.325 396.039 246.209 377.502 259.975 363.261C273.682 349.02 286.094 336.191 287.447 334.72L290.036 332.072L289.977 359.142L289.918 386.211L268.387 406.514C256.563 417.695 246.326 427.699 245.679 428.817C244.267 431.288 244.15 436.643 245.503 439.174C246.679 441.528 249.915 444.529 251.974 445.294C254.327 446.177 258.563 446.118 260.916 445.118C262.034 444.647 266.857 440.527 271.681 436.055C276.446 431.583 282.506 425.816 285.212 423.285L290.036 418.754V443.058V467.421L259.445 497.021C239.032 516.735 228.443 527.445 227.619 529.034C225.854 532.447 226.266 537.272 228.501 540.686C231.619 545.452 238.267 547.159 243.562 544.569C244.679 544.04 255.562 533.918 267.681 522.149L289.742 500.787L290.036 537.625C290.389 578.642 290.095 576.229 294.389 579.996C298.919 583.938 305.272 583.938 309.802 579.996C314.096 576.229 313.802 578.583 314.155 537.802L314.449 501.14L336.216 522.561C354.217 540.332 358.512 544.216 360.806 545.099C366.277 547.159 372.513 544.805 375.219 539.509C377.101 535.919 376.866 530.505 374.748 527.621C373.925 526.503 359.982 512.557 343.746 496.55L314.155 467.538V443.117V418.695L318.744 423.05C335.451 438.939 341.451 444.352 343.275 445.118C345.628 446.118 349.864 446.177 352.217 445.294C354.453 444.47 357.629 441.351 358.629 439.056C359.688 436.643 359.688 431.759 358.629 429.229C358.1 427.993 350.099 420.049 336.039 406.749L314.214 386.211V359.142L314.155 332.072L323.45 341.487C343.922 362.202 398.574 418.46 398.927 419.107C399.103 419.46 399.044 425.286 398.809 432.112C398.574 438.88 398.221 450.826 397.985 458.594C397.75 466.361 397.397 478.955 397.162 486.546C396.632 501.317 396.868 503.259 399.28 506.436C402.221 510.379 406.986 511.968 411.869 510.673C415.222 509.732 419.105 505.907 419.928 502.729C420.516 500.493 420.811 492.843 421.517 465.067C421.693 458.24 421.987 450.59 422.164 447.942L422.517 443.176L434.106 455.004C440.459 461.536 453.048 474.365 461.99 483.604C471.403 493.255 479.345 500.964 480.756 501.67C484.816 503.906 490.581 503.141 494.052 499.904C497.522 496.668 498.758 490.43 496.758 486.193C496.228 485.134 483.404 471.481 468.226 455.887C453.048 440.292 440.695 427.463 440.812 427.404C440.871 427.346 454.578 427.699 471.285 428.169L501.582 429.111L504.523 427.64C506.347 426.757 508.053 425.286 509.17 423.697C510.641 421.579 510.935 420.578 510.935 417.518C510.935 412.928 509.406 409.809 506.053 407.455C503.699 405.808 503.17 405.69 495.464 405.278C491.051 405.042 471.52 404.395 452.107 403.866L416.81 402.865L407.986 393.979C389.338 375.089 332.039 316.301 330.686 314.653L329.274 312.946H356.159H383.043L384.631 314.653C415.869 348.078 425.046 357.612 426.811 358.435C429.87 359.907 434.576 359.73 437.753 358.082C442.93 355.317 445.224 348.49 442.812 342.959C442.342 341.84 436.224 334.779 429.223 327.364L416.575 313.829L440.812 313.653L465.049 313.476L472.403 321.067C476.462 325.246 489.816 339.192 502.111 352.021C515.465 365.968 525.289 375.737 526.466 376.266C530.113 378.032 533.172 378.032 536.761 376.266C540.82 374.265 542.938 371.264 543.408 366.968C543.997 361.378 543.408 360.672 520.289 336.544C508.7 324.481 499.052 314.3 498.934 314.006C498.817 313.594 510.818 313.535 535.114 313.829C562.057 314.123 572.175 314.065 574.058 313.594C578.941 312.24 583 307.062 583 302.06C583 297.175 578.999 291.938 574.352 290.643C572.881 290.231 559.233 289.996 535.408 289.996H498.699L520.289 268.222C535.349 252.981 542.232 245.625 542.997 243.919C547.585 233.797 536.878 223.734 526.819 228.618C525.878 229.089 511.582 243.095 495.052 259.69L465.049 289.937L441.283 289.525L417.516 289.113L429.988 275.99C436.871 268.752 442.871 261.985 443.342 260.867C444.342 258.454 444.401 254.276 443.518 251.922C442.754 249.862 439.753 246.626 437.4 245.449C435.106 244.213 429.694 244.213 427.341 245.449C425.223 246.567 424.87 246.861 402.221 270.694L384.455 289.408H358.159C334.922 289.408 329.921 289.172 332.274 288.113C332.51 287.995 344.04 276.167 357.982 261.749C371.866 247.332 390.632 227.971 399.633 218.673L416.046 201.725L457.99 201.607L499.934 201.431L502.17 199.607C506.229 196.37 506.817 195.134 506.817 189.956C506.817 185.719 506.7 185.189 504.994 183.07C504.052 181.835 502.052 180.246 500.64 179.481C498.052 178.186 497.993 178.186 468.344 178.186H438.694L444.224 172.419C447.283 169.3 459.931 156.177 472.403 143.29C484.874 130.402 495.64 118.868 496.346 117.691C498.111 114.808 498.17 109.629 496.522 106.392C493.64 100.802 486.286 98.448 480.698 101.39C479.227 102.096 469.461 112.042 434.812 147.88C428.517 154.353 423.164 159.708 422.928 159.826C422.634 159.943 422.399 146.409 422.399 129.225V98.448L421.046 96.0941C420.34 94.8583 418.575 92.9752 417.222 92.0336C415.045 90.5036 414.104 90.2094 411.045 90.2094C406.457 90.2094 403.339 91.7394 400.927 95.1525L399.162 97.683L398.985 141.23L398.868 184.836L396.397 187.543C395.044 189.014 376.042 208.787 354.158 231.384L314.449 272.577L314.273 245.507L314.096 218.496L317.861 214.966C358.453 176.833 358.041 177.245 359.1 172.184C360.159 167.417 355.688 160.708 350.57 159.355C347.57 158.531 343.863 159.002 341.51 160.473C340.51 161.062 334.098 166.887 327.215 173.419C320.332 179.893 314.567 185.248 314.449 185.248C314.273 185.248 314.155 174.479 314.214 161.238V137.287L344.275 107.864C361.688 90.7978 374.748 77.4983 375.395 76.2625C376.748 73.6732 376.866 68.9066 375.689 66.1996C374.689 63.9046 371.513 60.7857 369.277 59.9619C366.63 58.9614 361.983 59.1968 359.571 60.4326C358.394 61.08 347.687 71.1428 335.804 82.8534L314.214 104.097L314.038 66.2585C313.861 24.1827 314.096 26.7131 309.802 22.9469C306.449 20.0045 302.272 19.2395 298.036 20.7695Z" fill="url(#paint1_linear_1_61)"/>
</g>
</g>
<defs>
<filter id="filter0_i_1_61" x="20.0146" y="20.0001" width="562.985" height="566.953" filterUnits="userSpaceOnUse" color-interpolation-filters="sRGB">
<feFlood flood-opacity="0" result="BackgroundImageFix"/>
<feBlend mode="normal" in="SourceGraphic" in2="BackgroundImageFix" result="shape"/>
<feColorMatrix in="SourceAlpha" type="matrix" values="0 0 0 0 0 0 0 0 0 0 0 0 0 0 0 0 0 0 127 0" result="hardAlpha"/>
<feOffset dy="4"/>
<feGaussianBlur stdDeviation="2"/>
<feComposite in2="hardAlpha" operator="arithmetic" k2="-1" k3="1"/>
<feColorMatrix type="matrix" values="0 0 0 0 0 0 0 0 0 0.292314 0 0 0 0 1 0 0 0 1 0"/>
<feBlend mode="normal" in2="shape" result="effect1_innerShadow_1_61"/>
</filter>
<filter id="filter1_f_1_61" x="0.0146484" y="0.00012207" width="602.985" height="602.953" filterUnits="userSpaceOnUse" color-interpolation-filters="sRGB">
<feFlood flood-opacity="0" result="BackgroundImageFix"/>
<feBlend mode="normal" in="SourceGraphic" in2="BackgroundImageFix" result="shape"/>
<feGaussianBlur stdDeviation="10" result="effect1_foregroundBlur_1_61"/>
</filter>
<linearGradient id="paint0_linear_1_61" x1="301.75" y1="20" x2="300.325" y2="582.95" gradientUnits="userSpaceOnUse">
<stop stop-color="#133995"/>
<stop offset="1" stop-color="#6281CB" stop-opacity="0.7"/>
</linearGradient>
<linearGradient id="paint1_linear_1_61" x1="301.75" y1="20" x2="300.325" y2="582.95" gradientUnits="userSpaceOnUse">
<stop stop-color="#133995"/>
<stop offset="1" stop-color="#6281CB" stop-opacity="0.7"/>
</linearGradient>
</defs>
</svg>
